<svg width="20" height="20" viewBox="0 0 20 20" fill="none" xmlns="http://www.w3.org/2000/svg">
<g clip-path="url(#clip0_5115_353)">
<path d="M19.31 11.862V10.0001C19.31 9.21889 19.307 7.82643 19.295 7.20703H0.699301C0.687267 7.82643 0.690276 9.21889 0.690276 10.0001V11.862C0.690276 15.373 0.690276 17.1284 1.78103 18.2192C2.87171 19.31 4.62723 19.31 8.13812 19.31H11.8621C15.3731 19.31 17.1286 19.31 18.2192 18.2192C19.31 17.1284 19.31 15.373 19.31 11.862Z" fill="#9282FA" fill-opacity="0.4"/>
<path d="M5.28978 0.690186C5.6769 0.690186 5.9908 0.991969 5.9908 1.36429V2.72421C6.61257 2.71266 7.30955 2.71266 8.09378 2.71266H11.8326C12.6167 2.71266 13.3137 2.71266 13.9356 2.72421V1.36429C13.9356 0.991969 14.2494 0.690186 14.6366 0.690186C15.0237 0.690186 15.3376 0.991969 15.3376 1.36429V2.78391C16.6829 2.88746 17.5661 3.14174 18.2149 3.76573C18.8638 4.38972 19.1282 5.2391 19.2359 6.53284L19.3101 7.20703H0.69043V6.53284C0.798176 5.2391 1.06259 4.38972 1.71144 3.76573C2.36029 3.14174 3.24348 2.88746 4.58875 2.78391V1.36429C4.58875 0.991969 4.90265 0.690186 5.28978 0.690186Z" fill="#9282FA"/>
</g>
<defs>
<clipPath id="clip0_5115_353">
<rect width="20" height="20" fill="white"/>
</clipPath>
</defs>
</svg>
